<?xml version="1.0" encoding="utf-8"?>
<!-- Generator: Adobe Illustrator 19.1.0, SVG Export Plug-In . SVG Version: 6.00 Build 0)  -->
<svg version="1.1" id="Capa_1" xmlns="http://www.w3.org/2000/svg" xmlns:xlink="http://www.w3.org/1999/xlink" x="0px" y="0px"
	 viewBox="0 0 3000 100" style="enable-background:new 0 0 3000 100;" xml:space="preserve">
<style type="text/css">
	.st0{fill:#FFFFFF;}
</style>
<path class="st0" d="M2999.9,99.9L0.1,99.9C19.7,61.3,50.1,14.6,87,15c18.5,0.2,25.2,14.2,59.2,36.2c40.2,25.9,80,38.9,104.2,43.8
	c44.7,9.2,79.3,0.3,132-13.3c73.5-19,79.7-36.4,161.2-56C595.2,13.2,623.5,13,637,13c160,0,132,92,256,80
	c82.5-8,93.3-34.6,130.8-49.1c32.3-12.5,61.8-11.7,89.2-8.9c107.1,11,295.6,53.1,390.7,60.7c177.9,14.2,164.5-81.2,387.3-82.7
	c111.5-0.7,153.5,32.7,225.1,38c33.5,2.4,63.4-5,100.9-10c134.7-17.9,146.7-36.6,200.7-32.7c89.7,6.5,83.8,60,173.3,74
	c102.8,16.1,141.8-49.5,252.7-41.3C2911.6,46,2965.2,75.6,2999.9,99.9z"/>
</svg>
