<?xml version="1.0" encoding="utf-8"?>
<!-- Generator: Adobe Illustrator 19.1.0, SVG Export Plug-In . SVG Version: 6.00 Build 0)  -->
<svg version="1.1" id="Capa_1" xmlns="http://www.w3.org/2000/svg" xmlns:xlink="http://www.w3.org/1999/xlink" x="0px" y="0px"
	 viewBox="0 0 126 126" width="124" height="124" style="enable-background:new 0 0 126 126;" xml:space="preserve">
<style type="text/css">
	.st0{fill:#F9F458;stroke:#D1C70F;stroke-linecap:round;stroke-linejoin:round;stroke-miterlimit:10;}
	.st1{fill:none;stroke:#D1C70F;stroke-linecap:round;stroke-linejoin:round;stroke-miterlimit:10;}
</style>
<path class="st0" d="M44.3,195"/>
<g>
	<polygon class="st0" points="93.7,54.3 63.4,71.8 33.2,54.3 33.2,19.3 63.4,1.8 93.7,19.3 	"/>
	<path class="st1" d="M63.4,71.8c-10.1-5.9-20.1-11.7-30.2-17.6c0-11.6,0-23.2,0-34.8C43.3,25.2,53.4,31,63.4,36.8
		C63.4,48.5,63.4,60.1,63.4,71.8z"/>
	<path class="st1" d="M63.4,71.9C73.5,66,83.6,60.2,93.7,54.3c0-11.6,0-23.2,0-34.8c-10.1,5.8-20.1,11.6-30.2,17.4
		C63.4,48.5,63.4,60.2,63.4,71.9z"/>
	<g>
		<polygon class="st0" points="123.6,106.6 93.4,124.1 63.1,106.6 63.1,71.6 93.4,54.1 123.6,71.6 		"/>
		<path class="st1" d="M93.4,124.1c-10.1-5.9-20.1-11.7-30.2-17.6c0-11.6,0-23.2,0-34.8c10.1,5.8,20.1,11.6,30.2,17.4
			C93.4,100.8,93.4,112.4,93.4,124.1z"/>
		<path class="st1" d="M93.4,124.2c10.1-5.9,20.1-11.7,30.2-17.6c0-11.6,0-23.2,0-34.8c-10.1,5.8-20.1,11.6-30.2,17.4
			C93.4,100.9,93.4,112.5,93.4,124.2z"/>
	</g>
	<polygon class="st0" points="62.9,106.6 32.6,124.1 2.4,106.6 2.4,71.6 32.6,54.1 62.9,71.6 	"/>
	<path class="st1" d="M32.6,124.1c-10.1-5.9-20.1-11.7-30.2-17.6c0-11.6,0-23.2,0-34.8c10.1,5.8,20.1,11.6,30.2,17.4
		C32.6,100.8,32.6,112.4,32.6,124.1z"/>
	<path class="st1" d="M32.6,124.2c10.1-5.9,20.1-11.7,30.2-17.6c0-11.6,0-23.2,0-34.8c-10.1,5.8-20.1,11.6-30.2,17.4
		C32.6,100.8,32.6,112.5,32.6,124.2z"/>
</g>
</svg>
