<?xml version="1.0" encoding="utf-8"?>
<!-- Generator: Adobe Illustrator 19.1.0, SVG Export Plug-In . SVG Version: 6.00 Build 0)  -->
<svg version="1.1" id="Capa_1" xmlns="http://www.w3.org/2000/svg" xmlns:xlink="http://www.w3.org/1999/xlink" x="0px" y="0px"
	 viewBox="-124 41 550 470" style="enable-background:new -124 41 550 470;" xml:space="preserve">
<style type="text/css">
	.st0{fill:#FFFCE6;}
</style>
<path class="st0" d="M388,69.6c-35.8-33.5-93.3-17.5-102-15.1c-4,1.1-58.8,17.3-86.7,71.3c-21,40.8-1.5,55.2-19.3,86.4
	c-33.1,57.9-133.9,75.6-178,75.2c-11-0.1-46.7,0.6-84.6,20.2c-2.3,1.2-4.4,2.6-6.8,4.3c-61.4,46.3-29.3,183.3,26.4,196
	c31.6,7.2,51.1-30.1,126-35.5c17-1.2,44.3-0.4,74.2,11c28.9,11,35.9,23.6,57.9,23.6c20.4,0,42.6-10.8,52.8-26.2
	c11.8-17.7,46.7,4.4,60.2-1.2c9.8-4.1,1.8-33.9,14-39.3c6.8-3,17.5,2.7,37.8,13.6c6,3.2,7.2,4.6,10.5,5.2
	c14.2,2.5,27.8-12.6,33-18.5c29.2-32.7,16-132.8,14.9-141c0.4-3.7,10.8-116.1-3.6-170.2C406.5,98.4,402.4,83,388,69.6z"/>
</svg>
