<?xml version="1.0" encoding="utf-8"?>
<!-- Generator: Adobe Illustrator 19.1.0, SVG Export Plug-In . SVG Version: 6.00 Build 0)  -->
<svg version="1.1" id="Capa_1" xmlns="http://www.w3.org/2000/svg" xmlns:xlink="http://www.w3.org/1999/xlink" x="0px" y="0px"
	 viewBox="-124 91 550 370" style="enable-background:new -124 91 550 370;" xml:space="preserve">
<style type="text/css">
	.st0{fill:#FFFCE6;}
	.st1{fill:#FCFAF2;}
</style>
<path class="st0" d="M-84,111.4c27.3-14,48.9,25.7,113.3,18.9c57.3-6.1,72.2-41,108.7-30.4c43.8,12.6,44.1,69,80.5,73.8
	c42.2,5.6,61.9-68,101.8-63.3c43.4,5.1,67.3,92.7,79.8,138.4c5,18.4,46.9,168.8,2.5,197.1c-29.8,19-62.1-40.5-130.7-31.2
	c-55.2,7.5-67.6,50.5-107.8,42.2c-43.9-9.1-45.1-57.7-88.3-66c-54.6-10.5-83.6,61.2-123,52.1C-119.7,426.2-149.9,145.3-84,111.4z"/>
<g>
	<g>
		<path class="st1" d="M294,320.5c1.9,0,1.9-3,0-3S292.1,320.5,294,320.5L294,320.5z"/>
	</g>
</g>
</svg>
