<?xml version="1.0" encoding="utf-8"?>
<!-- Generator: Adobe Illustrator 19.1.0, SVG Export Plug-In . SVG Version: 6.00 Build 0)  -->
<svg version="1.1" id="Capa_1" xmlns="http://www.w3.org/2000/svg" xmlns:xlink="http://www.w3.org/1999/xlink" x="0px" y="0px"
	 viewBox="0 0 126 126" width="124" height="124" style="enable-background:new 0 0 126 126;" xml:space="preserve">
<style type="text/css">
	.st0{fill:#F9F458;stroke:#D1C70F;stroke-linecap:round;stroke-linejoin:round;stroke-miterlimit:10;}
	.st1{fill:none;stroke:#D1C70F;stroke-linecap:round;stroke-linejoin:round;stroke-miterlimit:10;}
</style>
<g>
	<polygon class="st0" points="93.2,80.5 63,97.9 32.8,80.5 32.8,45.5 63,28 93.2,45.5 	"/>
	<path class="st1" d="M63,97.9c-10.1-5.9-20.1-11.7-30.2-17.6c0-11.6,0-23.2,0-34.8C42.9,51.4,52.9,57.2,63,63
		C63,74.6,63,86.3,63,97.9z"/>
	<path class="st1" d="M63,98c10.1-5.9,20.1-11.7,30.2-17.6c0-11.6,0-23.2,0-34.8C83.1,51.5,73.1,57.2,63,63C63,74.7,63,86.4,63,98z"
		/>
</g>
</svg>
