<?xml version="1.0" encoding="utf-8"?>
<!-- Generator: Adobe Illustrator 19.1.0, SVG Export Plug-In . SVG Version: 6.00 Build 0)  -->
<svg version="1.1" id="Capa_1" xmlns="http://www.w3.org/2000/svg" xmlns:xlink="http://www.w3.org/1999/xlink" x="0px" y="0px"
	 viewBox="-335 227 128.7 97" style="enable-background:new -335 227 128.7 97;" xml:space="preserve">
<style type="text/css">
	.st0{fill:#FFFCE6;}
</style>
<path class="st0" d="M-211.5,312.6c1.9-5.3-3.7-7.6-3.9-16.5c-0.2-10.9,8.2-13.2,7.6-23.7c-0.4-7.6-5-8.4-4.6-15.9
	c0.5-8.2,6.5-10.3,5.2-15.5c-1.4-5.7-10-8.1-16.5-10c-8-2.3-14.9-2.1-19.2-1.7c-12.2,1-12.7,5.2-21.7,5.6c-12.4,0.5-14-7.3-26.4-7.2
	c-8.3,0-18.6,3.6-24.6,11.1c-5.6,7-2.5,11-9.6,20.9c-5,7.1-8.9,8-9.1,12.6c-0.3,5.8,5.7,6.9,8.5,14.4c4.5,12-5.8,22.4-1.3,26.8
	c3.3,3.1,11.4,0.4,16.8-1.3c8.2-2.7,10.3-6,13.5-4.8c5.4,2,2.6,12.6,7.8,15.5c6.6,3.5,14.4-11.3,28.5-11.3c11.4,0,13.1,9.5,27,10.2
	C-224.9,322.1-213.9,319.1-211.5,312.6z"/>
</svg>
