<?xml version="1.0" encoding="utf-8"?>
<!-- Generator: Adobe Illustrator 19.1.0, SVG Export Plug-In . SVG Version: 6.00 Build 0)  -->
<svg version="1.1" id="Capa_1" xmlns="http://www.w3.org/2000/svg" xmlns:xlink="http://www.w3.org/1999/xlink" x="0px" y="0px"
	 viewBox="0 0 3000 100" style="enable-background:new 0 0 3000 100;" xml:space="preserve">
<style type="text/css">
	.st0{fill:#FFFFFF;}
</style>
<path class="st0" d="M2999.8,3.4c-177.4,79.9-229.9,89.6-243.4,82.2c-2.1-1.1-16.6-9.6-38.4-15.8c-5.6-1.6-11.7-2.9-18.8-3.9
	c-60.2-8-87.4,26.5-135.7,25c-50.5-1.6-59.1-40.5-108.9-64.3c-105.8-50.5-192.5,64.8-380.4,67.9c-13,0.2-70-10.6-183.9-32.1
	c-248.1-47-312.9-72.3-375-30.4c-32,21.7-55.1,55.6-103.6,58.9c-31.2,2.1-35.9-11-82.1-17.9c-73-10.8-87.4,18.1-137.5,3.6
	c-52.6-15.3-53.1-52-100-62.5c-41.4-9.3-70.6,12.6-117.9,33.9c-114,51.6-221.8,49.9-337.5,48.2c-60.3-0.9-99.8-7.3-133.9-16.1
	c-41.5-10.7-49.3-18.5-94.6-33.9C322,17,269.6-0.9,215.3,12.4C137.6,31.5,119.8,99.1,72.5,91C36.1,84.8,13.4,39.2,0.2,3L2999.8,3.4z
	"/>
</svg>
